<svg width="40" height="40" viewBox="0 0 40 40" fill="none" xmlns="http://www.w3.org/2000/svg">
<rect width="40" height="40" rx="8" fill="#F9AA01"/>
<path d="M20.9708 7.52419C20.1573 6.82527 18.8362 6.82527 18.0227 7.52419L7.61011 16.4705C6.79663 17.1694 6.79663 18.3045 7.61011 19.0034C8.4236 19.7024 9.7447 19.7024 10.5582 19.0034L17.4175 13.1044V30.259C17.4175 31.2486 18.3481 32.0482 19.5 32.0482C20.6519 32.0482 21.5825 31.2486 21.5825 30.259V13.1044L28.4418 18.9978C29.2553 19.6968 30.5764 19.6968 31.3899 18.9978C32.2034 18.2989 32.2034 17.1639 31.3899 16.4649L20.9773 7.5186L20.9708 7.52419Z" fill="#1B1426"/>
</svg>
