<svg width="40" height="41" viewBox="0 0 40 41" fill="none" xmlns="http://www.w3.org/2000/svg">
<rect width="40" height="40.08" rx="8" fill="#F9AA01"/>
<path d="M20.5028 14.0045C16.9557 14.0045 14.0945 16.826 14.0945 20.3239C14.0945 23.8219 16.9557 26.6433 20.5028 26.6433C24.0499 26.6433 26.911 23.8219 26.911 20.3239C26.911 16.826 24.0499 14.0045 20.5028 14.0045ZM20.5028 24.4324C18.2105 24.4324 16.3366 22.5899 16.3366 20.3239C16.3366 18.058 18.205 16.2155 20.5028 16.2155C22.8006 16.2155 24.669 18.058 24.669 20.3239C24.669 22.5899 22.795 24.4324 20.5028 24.4324ZM28.6679 13.746C28.6679 14.5655 27.9986 15.22 27.1732 15.22C26.3422 15.22 25.6785 14.56 25.6785 13.746C25.6785 12.9321 26.3477 12.2721 27.1732 12.2721C27.9986 12.2721 28.6679 12.9321 28.6679 13.746ZM32.9122 15.242C32.8173 13.2675 32.36 11.5186 30.8932 10.0776C29.432 8.63662 27.6584 8.18563 25.6562 8.08662C23.5926 7.97113 17.4074 7.97113 15.3438 8.08662C13.3472 8.18012 11.5736 8.63112 10.1068 10.0721C8.63999 11.5131 8.18823 13.262 8.08784 15.2365C7.97072 17.2715 7.97072 23.3709 8.08784 25.4059C8.18265 27.3803 8.63999 29.1293 10.1068 30.5703C11.5736 32.0113 13.3416 32.4623 15.3438 32.5613C17.4074 32.6768 23.5926 32.6768 25.6562 32.5613C27.6584 32.4678 29.432 32.0168 30.8932 30.5703C32.3544 29.1293 32.8118 27.3803 32.9122 25.4059C33.0293 23.3709 33.0293 17.277 32.9122 15.242ZM30.2462 27.5893C29.8112 28.6673 28.969 29.4978 27.8703 29.9323C26.225 30.5758 22.321 30.4273 20.5028 30.4273C18.6846 30.4273 14.775 30.5703 13.1353 29.9323C12.0421 29.5033 11.1999 28.6728 10.7593 27.5893C10.1068 25.9669 10.2574 22.1169 10.2574 20.3239C10.2574 18.531 10.1124 14.6755 10.7593 13.0586C11.1944 11.9806 12.0365 11.1501 13.1353 10.7156C14.7805 10.0721 18.6846 10.2206 20.5028 10.2206C22.321 10.2206 26.2306 10.0776 27.8703 10.7156C28.9635 11.1446 29.8056 11.9751 30.2462 13.0586C30.8988 14.681 30.7482 18.531 30.7482 20.3239C30.7482 22.1169 30.8988 25.9724 30.2462 27.5893Z" fill="#1B1426"/>
</svg>
