<svg width="40" height="41" viewBox="0 0 40 41" fill="none" xmlns="http://www.w3.org/2000/svg">
<rect width="40" height="40.08" rx="8" fill="#F9AA01"/>
<path d="M30.2143 8H8.78013C7.79799 8 7 8.79776 7 9.77707V30.8708C7 31.8501 7.79799 32.6479 8.78013 32.6479H30.2143C31.1964 32.6479 32 31.8501 32 30.8708V9.77707C32 8.79776 31.1964 8 30.2143 8ZM14.5558 29.1268H10.8505V17.364H14.5614V29.1268H14.5558ZM12.7031 15.7575C11.5145 15.7575 10.5547 14.8057 10.5547 13.6393C10.5547 12.4729 11.5145 11.5211 12.7031 11.5211C13.8862 11.5211 14.8516 12.4729 14.8516 13.6393C14.8516 14.8112 13.8917 15.7575 12.7031 15.7575ZM28.4453 29.1268H24.74V23.4049C24.74 22.0405 24.7121 20.2854 22.8147 20.2854C20.8839 20.2854 20.5882 21.7709 20.5882 23.3059V29.1268H16.8828V17.364H20.4375V18.9705H20.4877C20.9844 18.0462 22.1953 17.0724 23.9978 17.0724C27.7478 17.0724 28.4453 19.5097 28.4453 22.6787V29.1268Z" fill="#1B1426"/>
</svg>
